<mxfile host="app.diagrams.net" agent="Mozilla/5.0 (Windows NT 10.0; Win64; x64) AppleWebKit/537.36 (KHTML, like Gecko) Chrome/127.0.0.0 Safari/537.36" version="24.7.7" pages="2">
  <diagram id="C5RBs43oDa-KdzZeNtuy" name="Page-1">
    <mxGraphModel dx="2261" dy="746" grid="1" gridSize="10" guides="1" tooltips="1" connect="1" arrows="1" fold="1" page="1" pageScale="1" pageWidth="827" pageHeight="1169" math="0" shadow="0">
      <root>
        <mxCell id="WIyWlLk6GJQsqaUBKTNV-0" />
        <mxCell id="WIyWlLk6GJQsqaUBKTNV-1" parent="WIyWlLk6GJQsqaUBKTNV-0" />
        <mxCell id="WIyWlLk6GJQsqaUBKTNV-2" value="" style="rounded=0;html=1;jettySize=auto;orthogonalLoop=1;fontSize=11;endArrow=block;endFill=0;endSize=8;strokeWidth=1;shadow=0;labelBackgroundColor=none;edgeStyle=orthogonalEdgeStyle;" parent="WIyWlLk6GJQsqaUBKTNV-1" source="WIyWlLk6GJQsqaUBKTNV-3" target="WIyWlLk6GJQsqaUBKTNV-6" edge="1">
          <mxGeometry relative="1" as="geometry" />
        </mxCell>
        <mxCell id="W30jWArNpX-3SaUrFK1n-3" style="edgeStyle=orthogonalEdgeStyle;rounded=0;orthogonalLoop=1;jettySize=auto;html=1;" edge="1" parent="WIyWlLk6GJQsqaUBKTNV-1" source="WIyWlLk6GJQsqaUBKTNV-3" target="W30jWArNpX-3SaUrFK1n-0">
          <mxGeometry relative="1" as="geometry" />
        </mxCell>
        <mxCell id="WIyWlLk6GJQsqaUBKTNV-3" value="Entra a la App" style="rounded=1;whiteSpace=wrap;html=1;fontSize=12;glass=0;strokeWidth=1;shadow=0;" parent="WIyWlLk6GJQsqaUBKTNV-1" vertex="1">
          <mxGeometry x="-180" y="50" width="120" height="40" as="geometry" />
        </mxCell>
        <mxCell id="WIyWlLk6GJQsqaUBKTNV-4" value="No" style="rounded=0;html=1;jettySize=auto;orthogonalLoop=1;fontSize=11;endArrow=block;endFill=0;endSize=8;strokeWidth=1;shadow=0;labelBackgroundColor=none;edgeStyle=orthogonalEdgeStyle;" parent="WIyWlLk6GJQsqaUBKTNV-1" source="WIyWlLk6GJQsqaUBKTNV-6" target="WIyWlLk6GJQsqaUBKTNV-10" edge="1">
          <mxGeometry y="20" relative="1" as="geometry">
            <mxPoint as="offset" />
          </mxGeometry>
        </mxCell>
        <mxCell id="WIyWlLk6GJQsqaUBKTNV-5" value="Si" style="edgeStyle=orthogonalEdgeStyle;rounded=0;html=1;jettySize=auto;orthogonalLoop=1;fontSize=11;endArrow=block;endFill=0;endSize=8;strokeWidth=1;shadow=0;labelBackgroundColor=none;" parent="WIyWlLk6GJQsqaUBKTNV-1" source="WIyWlLk6GJQsqaUBKTNV-6" target="WIyWlLk6GJQsqaUBKTNV-7" edge="1">
          <mxGeometry y="10" relative="1" as="geometry">
            <mxPoint as="offset" />
          </mxGeometry>
        </mxCell>
        <mxCell id="WIyWlLk6GJQsqaUBKTNV-6" value="Tiene Usuario" style="rhombus;whiteSpace=wrap;html=1;shadow=0;fontFamily=Helvetica;fontSize=12;align=center;strokeWidth=1;spacing=6;spacingTop=-4;" parent="WIyWlLk6GJQsqaUBKTNV-1" vertex="1">
          <mxGeometry x="-170" y="140" width="100" height="80" as="geometry" />
        </mxCell>
        <mxCell id="W30jWArNpX-3SaUrFK1n-4" style="edgeStyle=orthogonalEdgeStyle;rounded=0;orthogonalLoop=1;jettySize=auto;html=1;" edge="1" parent="WIyWlLk6GJQsqaUBKTNV-1" source="WIyWlLk6GJQsqaUBKTNV-7" target="W30jWArNpX-3SaUrFK1n-0">
          <mxGeometry relative="1" as="geometry" />
        </mxCell>
        <mxCell id="WIyWlLk6GJQsqaUBKTNV-7" value="Inicia Sesion" style="rounded=1;whiteSpace=wrap;html=1;fontSize=12;glass=0;strokeWidth=1;shadow=0;" parent="WIyWlLk6GJQsqaUBKTNV-1" vertex="1">
          <mxGeometry x="-20" y="160" width="120" height="40" as="geometry" />
        </mxCell>
        <mxCell id="WIyWlLk6GJQsqaUBKTNV-8" value="" style="rounded=0;html=1;jettySize=auto;orthogonalLoop=1;fontSize=11;endArrow=block;endFill=0;endSize=8;strokeWidth=1;shadow=0;labelBackgroundColor=none;edgeStyle=orthogonalEdgeStyle;" parent="WIyWlLk6GJQsqaUBKTNV-1" source="WIyWlLk6GJQsqaUBKTNV-10" target="WIyWlLk6GJQsqaUBKTNV-11" edge="1">
          <mxGeometry x="0.3333" y="20" relative="1" as="geometry">
            <mxPoint as="offset" />
          </mxGeometry>
        </mxCell>
        <mxCell id="WIyWlLk6GJQsqaUBKTNV-10" value="Crea un Usuario" style="rhombus;whiteSpace=wrap;html=1;shadow=0;fontFamily=Helvetica;fontSize=12;align=center;strokeWidth=1;spacing=6;spacingTop=-4;" parent="WIyWlLk6GJQsqaUBKTNV-1" vertex="1">
          <mxGeometry x="-170" y="260" width="100" height="80" as="geometry" />
        </mxCell>
        <mxCell id="W30jWArNpX-3SaUrFK1n-1" value="" style="edgeStyle=orthogonalEdgeStyle;rounded=0;orthogonalLoop=1;jettySize=auto;html=1;" edge="1" parent="WIyWlLk6GJQsqaUBKTNV-1" source="WIyWlLk6GJQsqaUBKTNV-11" target="W30jWArNpX-3SaUrFK1n-0">
          <mxGeometry relative="1" as="geometry" />
        </mxCell>
        <mxCell id="WIyWlLk6GJQsqaUBKTNV-11" value="Inicia Sesion" style="rounded=1;whiteSpace=wrap;html=1;fontSize=12;glass=0;strokeWidth=1;shadow=0;" parent="WIyWlLk6GJQsqaUBKTNV-1" vertex="1">
          <mxGeometry x="-20" y="280" width="120" height="40" as="geometry" />
        </mxCell>
        <mxCell id="W30jWArNpX-3SaUrFK1n-6" value="" style="edgeStyle=orthogonalEdgeStyle;rounded=0;orthogonalLoop=1;jettySize=auto;html=1;" edge="1" parent="WIyWlLk6GJQsqaUBKTNV-1" source="W30jWArNpX-3SaUrFK1n-0" target="W30jWArNpX-3SaUrFK1n-5">
          <mxGeometry relative="1" as="geometry" />
        </mxCell>
        <mxCell id="W30jWArNpX-3SaUrFK1n-0" value="Catalogo" style="whiteSpace=wrap;html=1;rounded=1;glass=0;strokeWidth=1;shadow=0;" vertex="1" parent="WIyWlLk6GJQsqaUBKTNV-1">
          <mxGeometry x="170" y="280" width="110" height="40" as="geometry" />
        </mxCell>
        <mxCell id="W30jWArNpX-3SaUrFK1n-8" value="" style="edgeStyle=orthogonalEdgeStyle;rounded=0;orthogonalLoop=1;jettySize=auto;html=1;" edge="1" parent="WIyWlLk6GJQsqaUBKTNV-1" source="W30jWArNpX-3SaUrFK1n-5" target="W30jWArNpX-3SaUrFK1n-7">
          <mxGeometry relative="1" as="geometry">
            <Array as="points">
              <mxPoint x="460" y="420" />
            </Array>
          </mxGeometry>
        </mxCell>
        <mxCell id="W30jWArNpX-3SaUrFK1n-9" value="No" style="edgeLabel;html=1;align=center;verticalAlign=middle;resizable=0;points=[];" vertex="1" connectable="0" parent="W30jWArNpX-3SaUrFK1n-8">
          <mxGeometry x="0.0044" y="4" relative="1" as="geometry">
            <mxPoint x="-69" y="-16" as="offset" />
          </mxGeometry>
        </mxCell>
        <mxCell id="W30jWArNpX-3SaUrFK1n-12" value="" style="edgeStyle=orthogonalEdgeStyle;rounded=0;orthogonalLoop=1;jettySize=auto;html=1;" edge="1" parent="WIyWlLk6GJQsqaUBKTNV-1" source="W30jWArNpX-3SaUrFK1n-5" target="W30jWArNpX-3SaUrFK1n-11">
          <mxGeometry relative="1" as="geometry" />
        </mxCell>
        <mxCell id="W30jWArNpX-3SaUrFK1n-13" value="Si" style="edgeLabel;html=1;align=center;verticalAlign=middle;resizable=0;points=[];" vertex="1" connectable="0" parent="W30jWArNpX-3SaUrFK1n-12">
          <mxGeometry x="-0.24" relative="1" as="geometry">
            <mxPoint x="15" y="-7" as="offset" />
          </mxGeometry>
        </mxCell>
        <mxCell id="W30jWArNpX-3SaUrFK1n-5" value="Selecciona&amp;nbsp;&lt;div&gt;un Auto&lt;/div&gt;" style="rhombus;whiteSpace=wrap;html=1;rounded=1;glass=0;strokeWidth=1;shadow=0;" vertex="1" parent="WIyWlLk6GJQsqaUBKTNV-1">
          <mxGeometry x="172.5" y="370" width="105" height="100" as="geometry" />
        </mxCell>
        <mxCell id="W30jWArNpX-3SaUrFK1n-10" style="edgeStyle=orthogonalEdgeStyle;rounded=0;orthogonalLoop=1;jettySize=auto;html=1;" edge="1" parent="WIyWlLk6GJQsqaUBKTNV-1" source="W30jWArNpX-3SaUrFK1n-7" target="W30jWArNpX-3SaUrFK1n-0">
          <mxGeometry relative="1" as="geometry">
            <Array as="points">
              <mxPoint x="460" y="300" />
            </Array>
          </mxGeometry>
        </mxCell>
        <mxCell id="W30jWArNpX-3SaUrFK1n-7" value="Utiliza Filtro/Busqueda" style="whiteSpace=wrap;html=1;rounded=1;glass=0;strokeWidth=1;shadow=0;" vertex="1" parent="WIyWlLk6GJQsqaUBKTNV-1">
          <mxGeometry x="380" y="320" width="160" height="70" as="geometry" />
        </mxCell>
        <mxCell id="W30jWArNpX-3SaUrFK1n-15" value="" style="edgeStyle=orthogonalEdgeStyle;rounded=0;orthogonalLoop=1;jettySize=auto;html=1;" edge="1" parent="WIyWlLk6GJQsqaUBKTNV-1" source="W30jWArNpX-3SaUrFK1n-11" target="W30jWArNpX-3SaUrFK1n-14">
          <mxGeometry relative="1" as="geometry" />
        </mxCell>
        <mxCell id="W30jWArNpX-3SaUrFK1n-11" value="Detalles de Producto" style="whiteSpace=wrap;html=1;rounded=1;glass=0;strokeWidth=1;shadow=0;" vertex="1" parent="WIyWlLk6GJQsqaUBKTNV-1">
          <mxGeometry x="162.5" y="530" width="125" height="40" as="geometry" />
        </mxCell>
        <mxCell id="W30jWArNpX-3SaUrFK1n-16" style="edgeStyle=orthogonalEdgeStyle;rounded=0;orthogonalLoop=1;jettySize=auto;html=1;" edge="1" parent="WIyWlLk6GJQsqaUBKTNV-1" source="W30jWArNpX-3SaUrFK1n-14" target="W30jWArNpX-3SaUrFK1n-7">
          <mxGeometry relative="1" as="geometry" />
        </mxCell>
        <mxCell id="W30jWArNpX-3SaUrFK1n-17" value="No" style="edgeLabel;html=1;align=center;verticalAlign=middle;resizable=0;points=[];" vertex="1" connectable="0" parent="W30jWArNpX-3SaUrFK1n-16">
          <mxGeometry x="-0.8952" y="2" relative="1" as="geometry">
            <mxPoint x="4" y="12" as="offset" />
          </mxGeometry>
        </mxCell>
        <mxCell id="W30jWArNpX-3SaUrFK1n-18" style="edgeStyle=orthogonalEdgeStyle;rounded=0;orthogonalLoop=1;jettySize=auto;html=1;" edge="1" parent="WIyWlLk6GJQsqaUBKTNV-1" source="W30jWArNpX-3SaUrFK1n-14" target="W30jWArNpX-3SaUrFK1n-0">
          <mxGeometry relative="1" as="geometry">
            <mxPoint x="590" y="270" as="targetPoint" />
            <Array as="points">
              <mxPoint x="580" y="690" />
              <mxPoint x="580" y="300" />
            </Array>
          </mxGeometry>
        </mxCell>
        <mxCell id="W30jWArNpX-3SaUrFK1n-21" value="" style="edgeStyle=orthogonalEdgeStyle;rounded=0;orthogonalLoop=1;jettySize=auto;html=1;" edge="1" parent="WIyWlLk6GJQsqaUBKTNV-1" source="W30jWArNpX-3SaUrFK1n-14" target="W30jWArNpX-3SaUrFK1n-20">
          <mxGeometry relative="1" as="geometry" />
        </mxCell>
        <mxCell id="W30jWArNpX-3SaUrFK1n-22" value="Si" style="edgeLabel;html=1;align=center;verticalAlign=middle;resizable=0;points=[];" vertex="1" connectable="0" parent="W30jWArNpX-3SaUrFK1n-21">
          <mxGeometry x="-0.1487" y="4" relative="1" as="geometry">
            <mxPoint x="15" y="6" as="offset" />
          </mxGeometry>
        </mxCell>
        <mxCell id="W30jWArNpX-3SaUrFK1n-14" value="Añade al Carrito de Compras" style="rhombus;whiteSpace=wrap;html=1;rounded=1;glass=0;strokeWidth=1;shadow=0;" vertex="1" parent="WIyWlLk6GJQsqaUBKTNV-1">
          <mxGeometry x="157.5" y="630" width="135" height="120" as="geometry" />
        </mxCell>
        <mxCell id="W30jWArNpX-3SaUrFK1n-24" value="" style="edgeStyle=orthogonalEdgeStyle;rounded=0;orthogonalLoop=1;jettySize=auto;html=1;" edge="1" parent="WIyWlLk6GJQsqaUBKTNV-1" source="W30jWArNpX-3SaUrFK1n-20" target="W30jWArNpX-3SaUrFK1n-23">
          <mxGeometry relative="1" as="geometry" />
        </mxCell>
        <mxCell id="W30jWArNpX-3SaUrFK1n-20" value="Proceso de pago" style="whiteSpace=wrap;html=1;rounded=1;glass=0;strokeWidth=1;shadow=0;" vertex="1" parent="WIyWlLk6GJQsqaUBKTNV-1">
          <mxGeometry x="165" y="800" width="120" height="40" as="geometry" />
        </mxCell>
        <mxCell id="W30jWArNpX-3SaUrFK1n-27" value="" style="edgeStyle=orthogonalEdgeStyle;rounded=0;orthogonalLoop=1;jettySize=auto;html=1;" edge="1" parent="WIyWlLk6GJQsqaUBKTNV-1" source="W30jWArNpX-3SaUrFK1n-23" target="W30jWArNpX-3SaUrFK1n-26">
          <mxGeometry relative="1" as="geometry">
            <mxPoint x="340" y="970" as="sourcePoint" />
            <mxPoint x="460" y="855" as="targetPoint" />
            <Array as="points" />
          </mxGeometry>
        </mxCell>
        <mxCell id="W30jWArNpX-3SaUrFK1n-28" value="Si" style="edgeLabel;html=1;align=center;verticalAlign=middle;resizable=0;points=[];" vertex="1" connectable="0" parent="W30jWArNpX-3SaUrFK1n-27">
          <mxGeometry x="-0.0378" y="4" relative="1" as="geometry">
            <mxPoint x="-7" y="-11" as="offset" />
          </mxGeometry>
        </mxCell>
        <mxCell id="W30jWArNpX-3SaUrFK1n-30" style="edgeStyle=orthogonalEdgeStyle;rounded=0;orthogonalLoop=1;jettySize=auto;html=1;" edge="1" parent="WIyWlLk6GJQsqaUBKTNV-1" source="W30jWArNpX-3SaUrFK1n-23" target="W30jWArNpX-3SaUrFK1n-32">
          <mxGeometry relative="1" as="geometry">
            <mxPoint x="225" y="1060" as="targetPoint" />
          </mxGeometry>
        </mxCell>
        <mxCell id="W30jWArNpX-3SaUrFK1n-31" value="No" style="edgeLabel;html=1;align=center;verticalAlign=middle;resizable=0;points=[];" vertex="1" connectable="0" parent="W30jWArNpX-3SaUrFK1n-30">
          <mxGeometry x="-0.2728" y="2" relative="1" as="geometry">
            <mxPoint x="13" y="5" as="offset" />
          </mxGeometry>
        </mxCell>
        <mxCell id="W30jWArNpX-3SaUrFK1n-23" value="Presenta algún&amp;nbsp;&lt;div&gt;problema&lt;/div&gt;" style="rhombus;whiteSpace=wrap;html=1;rounded=1;glass=0;strokeWidth=1;shadow=0;" vertex="1" parent="WIyWlLk6GJQsqaUBKTNV-1">
          <mxGeometry x="152.5" y="890" width="145" height="110" as="geometry" />
        </mxCell>
        <mxCell id="W30jWArNpX-3SaUrFK1n-26" value="Se cancela el pago/&lt;div&gt;avisa del error&lt;/div&gt;" style="whiteSpace=wrap;html=1;rounded=1;glass=0;strokeWidth=1;shadow=0;" vertex="1" parent="WIyWlLk6GJQsqaUBKTNV-1">
          <mxGeometry x="380" y="915" width="140" height="60" as="geometry" />
        </mxCell>
        <mxCell id="W30jWArNpX-3SaUrFK1n-37" value="" style="edgeStyle=orthogonalEdgeStyle;rounded=0;orthogonalLoop=1;jettySize=auto;html=1;" edge="1" parent="WIyWlLk6GJQsqaUBKTNV-1" source="W30jWArNpX-3SaUrFK1n-32" target="W30jWArNpX-3SaUrFK1n-36">
          <mxGeometry relative="1" as="geometry" />
        </mxCell>
        <mxCell id="W30jWArNpX-3SaUrFK1n-32" value="Confirmación de la Compra" style="whiteSpace=wrap;html=1;rounded=1;glass=0;strokeWidth=1;shadow=0;" vertex="1" parent="WIyWlLk6GJQsqaUBKTNV-1">
          <mxGeometry x="165" y="1040" width="120" height="60" as="geometry" />
        </mxCell>
        <mxCell id="W30jWArNpX-3SaUrFK1n-36" value="Fin de la App" style="whiteSpace=wrap;html=1;rounded=1;glass=0;strokeWidth=1;shadow=0;" vertex="1" parent="WIyWlLk6GJQsqaUBKTNV-1">
          <mxGeometry x="165" y="1150" width="120" height="60" as="geometry" />
        </mxCell>
      </root>
    </mxGraphModel>
  </diagram>
  <diagram id="jAoKlQz3dMGn1b3NVXvZ" name="Página-2">
    <mxGraphModel dx="1434" dy="746" grid="1" gridSize="10" guides="1" tooltips="1" connect="1" arrows="1" fold="1" page="1" pageScale="1" pageWidth="827" pageHeight="1169" math="0" shadow="0">
      <root>
        <mxCell id="0" />
        <mxCell id="1" parent="0" />
        <mxCell id="KXnWpmYuZP9x9hSkO3TR-3" value="" style="edgeStyle=orthogonalEdgeStyle;rounded=0;orthogonalLoop=1;jettySize=auto;html=1;" edge="1" parent="1" source="KXnWpmYuZP9x9hSkO3TR-1" target="KXnWpmYuZP9x9hSkO3TR-2">
          <mxGeometry relative="1" as="geometry" />
        </mxCell>
        <mxCell id="KXnWpmYuZP9x9hSkO3TR-1" value="Usuario" style="shape=umlActor;verticalLabelPosition=bottom;verticalAlign=top;html=1;outlineConnect=0;" vertex="1" parent="1">
          <mxGeometry x="70" y="40" width="30" height="60" as="geometry" />
        </mxCell>
        <mxCell id="KXnWpmYuZP9x9hSkO3TR-8" value="" style="edgeStyle=orthogonalEdgeStyle;rounded=0;orthogonalLoop=1;jettySize=auto;html=1;" edge="1" parent="1" source="KXnWpmYuZP9x9hSkO3TR-2" target="KXnWpmYuZP9x9hSkO3TR-7">
          <mxGeometry relative="1" as="geometry" />
        </mxCell>
        <mxCell id="KXnWpmYuZP9x9hSkO3TR-2" value="Entra a la App" style="whiteSpace=wrap;html=1;verticalAlign=top;" vertex="1" parent="1">
          <mxGeometry x="140" y="55" width="125" height="30" as="geometry" />
        </mxCell>
        <mxCell id="KXnWpmYuZP9x9hSkO3TR-4" value="" style="edgeStyle=orthogonalEdgeStyle;rounded=0;orthogonalLoop=1;jettySize=auto;html=1;" edge="1" parent="1" source="KXnWpmYuZP9x9hSkO3TR-5" target="KXnWpmYuZP9x9hSkO3TR-6">
          <mxGeometry relative="1" as="geometry" />
        </mxCell>
        <mxCell id="KXnWpmYuZP9x9hSkO3TR-5" value="Vendedor" style="shape=umlActor;verticalLabelPosition=bottom;verticalAlign=top;html=1;outlineConnect=0;" vertex="1" parent="1">
          <mxGeometry x="66.25" y="390" width="30" height="60" as="geometry" />
        </mxCell>
        <mxCell id="KXnWpmYuZP9x9hSkO3TR-24" value="" style="edgeStyle=orthogonalEdgeStyle;rounded=0;orthogonalLoop=1;jettySize=auto;html=1;" edge="1" parent="1" source="KXnWpmYuZP9x9hSkO3TR-6" target="KXnWpmYuZP9x9hSkO3TR-25">
          <mxGeometry relative="1" as="geometry">
            <mxPoint x="198.75" y="500" as="targetPoint" />
          </mxGeometry>
        </mxCell>
        <mxCell id="KXnWpmYuZP9x9hSkO3TR-6" value="Entra a la App" style="whiteSpace=wrap;html=1;verticalAlign=top;" vertex="1" parent="1">
          <mxGeometry x="136.25" y="405" width="125" height="30" as="geometry" />
        </mxCell>
        <mxCell id="KXnWpmYuZP9x9hSkO3TR-10" value="" style="edgeStyle=orthogonalEdgeStyle;rounded=0;orthogonalLoop=1;jettySize=auto;html=1;" edge="1" parent="1" source="KXnWpmYuZP9x9hSkO3TR-7" target="KXnWpmYuZP9x9hSkO3TR-9">
          <mxGeometry relative="1" as="geometry" />
        </mxCell>
        <mxCell id="KXnWpmYuZP9x9hSkO3TR-7" value="Inicia Sesion/&lt;div&gt;Crea Usuario&lt;/div&gt;" style="whiteSpace=wrap;html=1;verticalAlign=top;" vertex="1" parent="1">
          <mxGeometry x="142.5" y="150" width="120" height="40" as="geometry" />
        </mxCell>
        <mxCell id="KXnWpmYuZP9x9hSkO3TR-12" value="" style="edgeStyle=orthogonalEdgeStyle;rounded=0;orthogonalLoop=1;jettySize=auto;html=1;" edge="1" parent="1" source="KXnWpmYuZP9x9hSkO3TR-9" target="KXnWpmYuZP9x9hSkO3TR-11">
          <mxGeometry relative="1" as="geometry" />
        </mxCell>
        <mxCell id="KXnWpmYuZP9x9hSkO3TR-9" value="Ve el catalogo" style="whiteSpace=wrap;html=1;verticalAlign=top;" vertex="1" parent="1">
          <mxGeometry x="143.75" y="265" width="117.5" height="30" as="geometry" />
        </mxCell>
        <mxCell id="KXnWpmYuZP9x9hSkO3TR-31" value="" style="edgeStyle=orthogonalEdgeStyle;rounded=0;orthogonalLoop=1;jettySize=auto;html=1;" edge="1" parent="1" source="KXnWpmYuZP9x9hSkO3TR-11" target="KXnWpmYuZP9x9hSkO3TR-30">
          <mxGeometry relative="1" as="geometry" />
        </mxCell>
        <mxCell id="KXnWpmYuZP9x9hSkO3TR-11" value="Selecciona el Carro deseado" style="whiteSpace=wrap;html=1;verticalAlign=top;" vertex="1" parent="1">
          <mxGeometry x="328.13" y="260" width="121.25" height="40" as="geometry" />
        </mxCell>
        <mxCell id="KXnWpmYuZP9x9hSkO3TR-17" value="" style="edgeStyle=orthogonalEdgeStyle;rounded=0;orthogonalLoop=1;jettySize=auto;html=1;" edge="1" parent="1" source="KXnWpmYuZP9x9hSkO3TR-13" target="KXnWpmYuZP9x9hSkO3TR-16">
          <mxGeometry relative="1" as="geometry" />
        </mxCell>
        <mxCell id="KXnWpmYuZP9x9hSkO3TR-13" value="Añade al carrito&amp;nbsp;" style="whiteSpace=wrap;html=1;verticalAlign=top;" vertex="1" parent="1">
          <mxGeometry x="320.02" y="44.99999999999999" width="136.24" height="30" as="geometry" />
        </mxCell>
        <mxCell id="KXnWpmYuZP9x9hSkO3TR-20" value="" style="edgeStyle=orthogonalEdgeStyle;rounded=0;orthogonalLoop=1;jettySize=auto;html=1;" edge="1" parent="1" source="KXnWpmYuZP9x9hSkO3TR-16" target="KXnWpmYuZP9x9hSkO3TR-19">
          <mxGeometry relative="1" as="geometry" />
        </mxCell>
        <mxCell id="KXnWpmYuZP9x9hSkO3TR-16" value="Proceso de Pago" style="whiteSpace=wrap;html=1;verticalAlign=top;" vertex="1" parent="1">
          <mxGeometry x="529.38" y="42.5" width="121.24" height="35" as="geometry" />
        </mxCell>
        <mxCell id="KXnWpmYuZP9x9hSkO3TR-22" value="" style="edgeStyle=orthogonalEdgeStyle;rounded=0;orthogonalLoop=1;jettySize=auto;html=1;" edge="1" parent="1" source="KXnWpmYuZP9x9hSkO3TR-19" target="KXnWpmYuZP9x9hSkO3TR-21">
          <mxGeometry relative="1" as="geometry" />
        </mxCell>
        <mxCell id="KXnWpmYuZP9x9hSkO3TR-19" value="Confirmación de la&lt;div&gt;Compra&lt;/div&gt;" style="whiteSpace=wrap;html=1;verticalAlign=top;" vertex="1" parent="1">
          <mxGeometry x="520" y="150" width="140" height="47.5" as="geometry" />
        </mxCell>
        <mxCell id="KXnWpmYuZP9x9hSkO3TR-21" value="Fin de la App" style="whiteSpace=wrap;html=1;verticalAlign=top;" vertex="1" parent="1">
          <mxGeometry x="530" y="255" width="120" height="40" as="geometry" />
        </mxCell>
        <mxCell id="KXnWpmYuZP9x9hSkO3TR-27" style="edgeStyle=orthogonalEdgeStyle;rounded=0;orthogonalLoop=1;jettySize=auto;html=1;" edge="1" parent="1" source="KXnWpmYuZP9x9hSkO3TR-25" target="KXnWpmYuZP9x9hSkO3TR-26">
          <mxGeometry relative="1" as="geometry" />
        </mxCell>
        <mxCell id="KXnWpmYuZP9x9hSkO3TR-25" value="Inicia Sesion/&lt;div&gt;Crea Usuario&lt;/div&gt;" style="whiteSpace=wrap;html=1;verticalAlign=top;" vertex="1" parent="1">
          <mxGeometry x="138.75" y="500" width="120" height="40" as="geometry" />
        </mxCell>
        <mxCell id="KXnWpmYuZP9x9hSkO3TR-29" value="" style="edgeStyle=orthogonalEdgeStyle;rounded=0;orthogonalLoop=1;jettySize=auto;html=1;" edge="1" parent="1" source="KXnWpmYuZP9x9hSkO3TR-26" target="KXnWpmYuZP9x9hSkO3TR-28">
          <mxGeometry relative="1" as="geometry" />
        </mxCell>
        <mxCell id="KXnWpmYuZP9x9hSkO3TR-26" value="Ve el catalogo" style="whiteSpace=wrap;html=1;verticalAlign=top;" vertex="1" parent="1">
          <mxGeometry x="140" y="600" width="117.5" height="30" as="geometry" />
        </mxCell>
        <mxCell id="KXnWpmYuZP9x9hSkO3TR-34" value="" style="edgeStyle=orthogonalEdgeStyle;rounded=0;orthogonalLoop=1;jettySize=auto;html=1;" edge="1" parent="1" source="KXnWpmYuZP9x9hSkO3TR-28" target="KXnWpmYuZP9x9hSkO3TR-33">
          <mxGeometry relative="1" as="geometry" />
        </mxCell>
        <mxCell id="KXnWpmYuZP9x9hSkO3TR-28" value="Anuncia un Automovil" style="whiteSpace=wrap;html=1;verticalAlign=top;" vertex="1" parent="1">
          <mxGeometry x="340.63" y="592.5" width="116.25" height="45" as="geometry" />
        </mxCell>
        <mxCell id="KXnWpmYuZP9x9hSkO3TR-32" style="edgeStyle=orthogonalEdgeStyle;rounded=0;orthogonalLoop=1;jettySize=auto;html=1;" edge="1" parent="1" source="KXnWpmYuZP9x9hSkO3TR-30" target="KXnWpmYuZP9x9hSkO3TR-13">
          <mxGeometry relative="1" as="geometry" />
        </mxCell>
        <mxCell id="KXnWpmYuZP9x9hSkO3TR-30" value="Detalles del producto" style="whiteSpace=wrap;html=1;verticalAlign=top;" vertex="1" parent="1">
          <mxGeometry x="328.135" y="130" width="120" height="60" as="geometry" />
        </mxCell>
        <mxCell id="KXnWpmYuZP9x9hSkO3TR-36" value="" style="edgeStyle=orthogonalEdgeStyle;rounded=0;orthogonalLoop=1;jettySize=auto;html=1;" edge="1" parent="1" source="KXnWpmYuZP9x9hSkO3TR-33" target="KXnWpmYuZP9x9hSkO3TR-35">
          <mxGeometry relative="1" as="geometry" />
        </mxCell>
        <mxCell id="KXnWpmYuZP9x9hSkO3TR-33" value="Adjunta los detalles del producto" style="whiteSpace=wrap;html=1;verticalAlign=top;" vertex="1" parent="1">
          <mxGeometry x="339.07" y="490" width="119.37" height="50" as="geometry" />
        </mxCell>
        <mxCell id="KXnWpmYuZP9x9hSkO3TR-39" value="" style="edgeStyle=orthogonalEdgeStyle;rounded=0;orthogonalLoop=1;jettySize=auto;html=1;" edge="1" parent="1" source="KXnWpmYuZP9x9hSkO3TR-35" target="KXnWpmYuZP9x9hSkO3TR-38">
          <mxGeometry relative="1" as="geometry" />
        </mxCell>
        <mxCell id="KXnWpmYuZP9x9hSkO3TR-35" value="Revisa sus estadísticas&amp;nbsp;" style="whiteSpace=wrap;html=1;verticalAlign=top;" vertex="1" parent="1">
          <mxGeometry x="337.96999999999997" y="400" width="121.57" height="40" as="geometry" />
        </mxCell>
        <mxCell id="KXnWpmYuZP9x9hSkO3TR-38" value="Fin de la App" style="whiteSpace=wrap;html=1;verticalAlign=top;" vertex="1" parent="1">
          <mxGeometry x="540.32" y="400" width="119.68" height="40" as="geometry" />
        </mxCell>
      </root>
    </mxGraphModel>
  </diagram>
</mxfile>
